<?xml version="1.0" encoding="UTF-8"?>
<svg xmlns="http://www.w3.org/2000/svg" xmlns:xlink="http://www.w3.org/1999/xlink" width="22px" height="22px" viewBox="0 0 22 22" version="1.1">
<g id="surface1" fill="#fff">
<path style=" stroke:none;fill-rule:nonzero;fill-opacity:1;" d="M 9.351562 12.375 C 9.804688 12.375 10.175781 12.003906 10.175781 11.550781 C 10.175781 11.09375 9.804688 10.726562 9.351562 10.726562 C 8.894531 10.726562 8.523438 11.09375 8.523438 11.550781 C 8.523438 12.003906 8.894531 12.375 9.351562 12.375 Z M 9.351562 12.375 "/>
<path style=" stroke:none;fill-rule:nonzero;fill-opacity:1;" d="M 12.101562 3.851562 C 12.101562 3.691406 12.03125 3.539062 11.910156 3.433594 C 11.785156 3.328125 11.625 3.28125 11.46875 3.304688 L 3.765625 4.484375 C 3.5 4.523438 3.300781 4.753906 3.300781 5.027344 L 3.300781 16.972656 C 3.300781 17.246094 3.5 17.476562 3.765625 17.515625 L 11.46875 18.695312 C 11.625 18.71875 11.785156 18.671875 11.910156 18.570312 C 12.03125 18.464844 12.101562 18.3125 12.101562 18.152344 L 12.101562 11 L 17.789062 11 L 16.691406 11.960938 C 16.464844 12.160156 16.441406 12.507812 16.640625 12.738281 C 16.839844 12.964844 17.1875 12.988281 17.417969 12.789062 L 19.613281 10.863281 C 19.730469 10.757812 19.800781 10.609375 19.800781 10.449219 C 19.800781 10.292969 19.730469 10.140625 19.613281 10.035156 L 17.417969 8.109375 C 17.1875 7.910156 16.839844 7.933594 16.640625 8.164062 C 16.441406 8.390625 16.464844 8.738281 16.691406 8.9375 L 17.789062 9.898438 L 12.101562 9.898438 Z M 11 4.492188 L 11 17.511719 L 4.398438 16.5 L 4.398438 5.5 Z M 11 4.492188 "/>
<path style=" stroke:none;fill-rule:nonzero;fill-opacity:1;" d="M 13.75 17.601562 L 13.199219 17.601562 L 13.199219 12.101562 L 14.300781 12.101562 L 14.300781 17.050781 C 14.300781 17.355469 14.054688 17.601562 13.75 17.601562 Z M 13.75 17.601562 "/>
<path style=" stroke:none;fill-rule:nonzero;fill-opacity:1;" d="M 13.199219 8.800781 L 13.199219 4.398438 L 13.75 4.398438 C 14.054688 4.398438 14.300781 4.644531 14.300781 4.949219 L 14.300781 8.800781 Z M 13.199219 8.800781 "/>
</g>
</svg>
