<?xml version="1.0" encoding="UTF-8"?>
<svg xmlns="http://www.w3.org/2000/svg" xmlns:xlink="http://www.w3.org/1999/xlink" width="22px" height="22px" viewBox="0 0 22 22" version="1.1">
<g id="surface1" fill="#fff">
<path style=" stroke:none;fill-rule:nonzero;fill-opacity:1;" d="M 14.402344 11.652344 C 16.242188 10.203125 16.964844 7.742188 16.199219 5.527344 C 15.429688 3.3125 13.34375 1.828125 11 1.828125 C 8.65625 1.828125 6.570312 3.3125 5.800781 5.527344 C 5.035156 7.742188 5.757812 10.203125 7.597656 11.652344 C 4.460938 12.90625 2.269531 15.789062 1.898438 19.148438 C 1.84375 19.65625 2.207031 20.109375 2.714844 20.167969 C 3.21875 20.222656 3.675781 19.855469 3.730469 19.351562 C 4.148438 15.640625 7.285156 12.835938 11.019531 12.835938 C 14.75 12.835938 17.890625 15.640625 18.304688 19.351562 C 18.359375 19.816406 18.753906 20.167969 19.222656 20.167969 L 19.324219 20.167969 C 19.824219 20.109375 20.183594 19.660156 20.128906 19.160156 C 19.753906 15.789062 17.550781 12.902344 14.402344 11.652344 Z M 11 11 C 8.976562 11 7.332031 9.359375 7.332031 7.332031 C 7.332031 5.308594 8.976562 3.667969 11 3.667969 C 13.023438 3.667969 14.667969 5.308594 14.667969 7.332031 C 14.667969 9.359375 13.023438 11 11 11 Z M 11 11 "/>
</g>
</svg>
