<?xml version="1.0" encoding="UTF-8"?>
<svg xmlns="http://www.w3.org/2000/svg" xmlns:xlink="http://www.w3.org/1999/xlink" width="22px" height="22px" viewBox="0 0 22 22" version="1.1">
<g id="surface1" fill="#fff">
<path style=" stroke:none;fill-rule:nonzero;fill-opacity:1;" d="M 11 0 C 4.949219 0 0 4.949219 0 11 C 0 17.050781 4.949219 22 11 22 C 14.023438 22 16.828125 20.816406 18.808594 18.808594 L 16.828125 16.828125 C 15.34375 18.316406 13.28125 19.25 10.972656 19.25 C 6.40625 19.25 2.722656 15.566406 2.722656 11 C 2.722656 6.433594 6.40625 2.75 10.972656 2.75 C 13.253906 2.75 15.234375 3.738281 16.71875 5.253906 L 13.722656 8.25 L 21.972656 8.25 L 21.972656 0 L 18.699219 3.273438 C 16.71875 1.292969 13.996094 0 10.972656 0 Z M 11 0 "/>
</g>
</svg>
