<?xml version="1.0" encoding="UTF-8"?>
<svg xmlns="http://www.w3.org/2000/svg" xmlns:xlink="http://www.w3.org/1999/xlink" width="19px" height="22px" viewBox="0 0 19 21" version="1.1">
<g id="surface1" fill="#fff">
<path style=" stroke:none;fill-rule:nonzero;fill-opacity:1;" d="M 18.402344 5.328125 L 14.847656 1.890625 C 14.464844 1.519531 13.945312 1.3125 13.40625 1.3125 L 2.035156 1.3125 C 0.910156 1.3125 0 2.195312 0 3.28125 L 0 17.71875 C 0 18.804688 0.910156 19.6875 2.035156 19.6875 L 16.964844 19.6875 C 18.089844 19.6875 19 18.804688 19 17.71875 L 19 6.722656 C 19 6.199219 18.785156 5.699219 18.402344 5.328125 Z M 11.535156 3.28125 L 11.535156 6.5625 L 6.105469 6.5625 L 6.105469 3.28125 Z M 16.710938 17.71875 L 2.289062 17.71875 C 2.148438 17.71875 2.035156 17.609375 2.035156 17.472656 L 2.035156 3.527344 C 2.035156 3.390625 2.148438 3.28125 2.289062 3.28125 L 4.070312 3.28125 L 4.070312 7.546875 C 4.070312 8.089844 4.527344 8.53125 5.089844 8.53125 L 12.554688 8.53125 C 13.117188 8.53125 13.570312 8.089844 13.570312 7.546875 L 13.570312 3.441406 L 16.890625 6.648438 C 16.9375 6.695312 16.964844 6.757812 16.964844 6.824219 L 16.964844 17.472656 C 16.964844 17.609375 16.851562 17.71875 16.710938 17.71875 Z M 9.5 9.515625 C 7.441406 9.515625 5.769531 11.136719 5.769531 13.125 C 5.769531 15.113281 7.441406 16.734375 9.5 16.734375 C 11.558594 16.734375 13.230469 15.113281 13.230469 13.125 C 13.230469 11.136719 11.558594 9.515625 9.5 9.515625 Z M 9.5 14.765625 C 8.566406 14.765625 7.804688 14.03125 7.804688 13.125 C 7.804688 12.21875 8.566406 11.484375 9.5 11.484375 C 10.433594 11.484375 11.195312 12.21875 11.195312 13.125 C 11.195312 14.03125 10.433594 14.765625 9.5 14.765625 Z M 9.5 14.765625 "/>
</g>
</svg>
